<svg width="349" height="349" viewBox="0 0 349 349" fill="none" xmlns="http://www.w3.org/2000/svg">
<g clip-path="url(#clip0_45_277)">
<path d="M174.282 154.684C170.905 154.684 167.485 155.544 164.358 157.349C154.849 162.84 151.58 175.043 157.069 184.552C162.561 194.064 174.762 197.332 184.272 191.84C193.782 186.349 197.052 174.147 191.561 164.637C187.877 158.256 181.169 154.684 174.282 154.684ZM174.368 206.077C163.477 206.077 152.87 200.432 147.045 190.34C138.364 175.303 143.534 156.007 158.57 147.323C173.61 138.647 192.904 143.812 201.585 158.849C210.266 173.887 205.097 193.183 190.06 201.867C185.114 204.721 179.706 206.077 174.368 206.077Z" fill="#9ACBC9"/>
<path d="M175.151 154.56C171.954 154.56 169.363 151.969 169.363 148.772V93.7133C169.363 90.5173 171.954 87.9253 175.151 87.9253C178.346 87.9253 180.938 90.5173 180.938 93.7133V148.772C180.938 151.969 178.346 154.56 175.151 154.56Z" fill="#9ACBC9"/>
<path d="M152.47 140.865C150.47 140.865 148.523 139.828 147.453 137.972L101.874 59.028C100.277 56.2574 101.225 52.72 103.993 51.12C106.762 49.524 110.301 50.4734 111.898 53.24L157.477 132.184C159.074 134.953 158.126 138.492 155.358 140.091C154.449 140.616 153.453 140.865 152.47 140.865Z" fill="#9ACBC9"/>
<path d="M153.624 142.577C152.144 142.577 150.661 142.012 149.532 140.883C147.272 138.621 147.272 134.959 149.532 132.697L170.337 111.893C172.594 109.632 176.264 109.632 178.521 111.893L199.196 132.568C201.456 134.829 201.456 138.492 199.196 140.752C196.938 143.013 193.27 143.013 191.012 140.752L174.429 124.169L157.717 140.883C156.586 142.012 155.105 142.577 153.624 142.577Z" fill="#9ACBC9"/>
<path d="M131.226 179.403C128.671 179.403 126.333 177.696 125.64 175.111L118.025 146.689C117.197 143.604 119.029 140.429 122.117 139.603L150.358 132.033C153.441 131.2 156.617 133.037 157.446 136.127C158.274 139.212 156.442 142.385 153.354 143.213L130.702 149.284L136.819 172.115C137.647 175.204 135.814 178.377 132.727 179.203C132.226 179.337 131.722 179.403 131.226 179.403Z" fill="#9ACBC9"/>
<path d="M151.925 217.207C151.43 217.207 150.925 217.141 150.423 217.005L122.004 209.392C120.52 208.997 119.255 208.025 118.489 206.696C117.722 205.368 117.512 203.788 117.91 202.305L125.478 174.061C126.305 170.973 129.476 169.133 132.565 169.971C135.654 170.799 137.486 173.972 136.658 177.057L130.589 199.711L153.419 205.827C156.506 206.652 158.338 209.825 157.512 212.915C156.818 215.5 154.479 217.207 151.925 217.207Z" fill="#9ACBC9"/>
<path d="M174.201 238.992C172.721 238.992 171.24 238.427 170.11 237.296L149.436 216.624C147.174 214.363 147.174 210.701 149.436 208.44C151.694 206.18 155.358 206.18 157.619 208.44L174.201 225.02L190.916 208.307C193.176 206.047 196.841 206.047 199.1 208.307C201.361 210.568 201.361 214.231 199.1 216.492L178.293 237.296C177.163 238.427 175.682 238.992 174.201 238.992Z" fill="#9ACBC9"/>
<path d="M196.772 217.356C194.217 217.356 191.878 215.649 191.185 213.064C190.357 209.977 192.19 206.804 195.278 205.976L217.927 199.905L211.812 177.075C210.984 173.989 212.816 170.815 215.902 169.987C218.99 169.153 222.165 170.993 222.991 174.079L230.608 202.5C231.436 205.585 229.602 208.76 226.514 209.588L198.273 217.156C197.772 217.291 197.268 217.353 196.772 217.356Z" fill="#9ACBC9"/>
<path d="M217.567 179.42C217.071 179.42 216.566 179.356 216.065 179.22C212.978 178.391 211.145 175.221 211.973 172.132L218.042 149.481L195.213 143.363C192.125 142.535 190.291 139.363 191.119 136.276C191.946 133.187 195.122 131.344 198.209 132.184L226.627 139.8C229.715 140.628 231.547 143.801 230.719 146.888L223.153 175.128C222.461 177.713 220.122 179.417 217.567 179.42Z" fill="#9ACBC9"/>
<path d="M160.476 79.104L175.36 87.2333L190.246 79.104L175.361 27.696L160.476 79.104ZM175.569 99.5013H175.152C174.181 99.5013 173.228 99.2587 172.376 98.792L150.849 87.0333C148.468 85.7333 147.309 82.952 148.065 80.344L169.424 6.5827L169.422 6.38803C169.412 3.5027 171.528 1.04668 174.386 0.637349C177.253 0.221349 179.968 1.98534 180.77 4.75734L202.657 80.344C203.412 82.952 202.253 85.7333 199.872 87.0333L178.342 98.792C177.493 99.2587 176.538 99.5013 175.569 99.5013Z" fill="#9ACBC9"/>
<path d="M152.363 166.745C151.382 166.745 150.388 166.497 149.476 165.972L101.791 138.444C99.0235 136.844 98.0755 133.307 99.6742 130.536C101.272 127.769 104.813 126.82 107.58 128.417L155.263 155.945C158.031 157.544 158.98 161.083 157.381 163.852C156.31 165.708 154.365 166.745 152.363 166.745Z" fill="#9ACBC9"/>
<path d="M47.6169 100.239L84.6969 138.836L99.1782 130.008L99.5809 113.052L47.6169 100.239ZM83.7435 151.983C82.2089 151.983 80.6902 151.375 79.5675 150.205L26.1995 94.7307C23.6942 93.3013 22.6262 90.24 23.6955 87.5613C24.7689 84.88 27.6542 83.4013 30.4502 84.0853L106.864 102.927C109.5 103.573 111.328 105.967 111.264 108.683L110.681 133.207C110.66 134.176 110.393 135.125 109.905 135.965L109.697 136.327C109.213 137.167 108.525 137.867 107.698 138.372L86.7542 151.137C85.8195 151.705 84.7795 151.983 83.7435 151.983Z" fill="#9ACBC9"/>
<path d="M103.857 220.1C101.855 220.1 99.9115 219.063 98.8382 217.207C97.2408 214.44 98.1888 210.899 100.957 209.3L148.638 181.769C151.405 180.172 154.946 181.121 156.545 183.888C158.142 186.655 157.194 190.196 154.426 191.795L106.745 219.327C105.834 219.852 104.838 220.1 103.857 220.1Z" fill="#9ACBC9"/>
<path d="M83.6516 208.545L46.5755 247.133L98.5369 234.327L98.1342 217.373L83.6516 208.545ZM28.1795 263.72C26.4555 263.72 24.7609 262.96 23.6275 261.52C21.8422 259.24 22.0036 256 24.0049 253.92L78.5209 197.176C80.4022 195.217 83.3902 194.831 85.7089 196.244L106.654 209.008C107.481 209.511 108.169 210.215 108.653 211.055L108.861 211.416C109.348 212.255 109.616 213.205 109.637 214.175L110.22 238.696C110.284 241.411 108.454 243.8 105.82 244.453L31.0942 262.933C30.1809 263.467 29.1755 263.72 28.1795 263.72Z" fill="#9ACBC9"/>
<path d="M173.48 261.267C170.284 261.267 167.691 258.68 167.691 255.48V200.42C167.691 197.224 170.284 194.632 173.48 194.632C176.674 194.632 179.268 197.224 179.268 200.42V255.48C179.268 258.68 176.674 261.267 173.48 261.267Z" fill="#9ACBC9"/>
<path d="M158.385 270.093L173.27 321.493L188.157 270.093L173.27 261.96L158.385 270.093ZM173.417 348.613C170.878 348.613 168.59 346.933 167.864 344.44L145.974 268.84C145.218 266.24 146.377 263.453 148.76 262.16L170.286 250.4C171.138 249.933 172.092 249.693 173.061 249.693H173.48C174.449 249.693 175.402 249.933 176.253 250.4L197.782 262.16C200.164 263.453 201.322 266.24 200.566 268.84L179.208 342.613L179.209 342.8C179.221 345.693 177.105 348.147 174.249 348.547C173.969 348.587 173.691 348.613 173.417 348.613Z" fill="#9ACBC9"/>
<path d="M243.938 221.547C242.956 221.547 241.961 221.299 241.05 220.773L193.368 193.245C190.6 191.645 189.652 188.108 191.249 185.337C192.844 182.568 196.389 181.621 199.156 183.219L246.838 210.747C249.606 212.345 250.554 215.884 248.956 218.653C247.885 220.509 245.94 221.547 243.938 221.547Z" fill="#9ACBC9"/>
<path d="M249.049 236.139L301.013 248.947L263.935 210.353L249.451 219.181L249.049 236.139ZM319.561 265.28C319.101 265.28 318.633 265.227 318.167 265.107L241.766 246.267C239.131 245.613 237.302 243.227 237.366 240.507L237.949 215.985C237.972 215.023 238.236 214.081 238.714 213.244L238.923 212.88C239.407 212.035 240.099 211.325 240.931 210.817L261.878 198.052C264.2 196.641 267.183 197.027 269.063 198.984L322.441 254.467C324.945 255.907 326.006 258.96 324.931 261.64C324.034 263.88 321.878 265.28 319.561 265.28Z" fill="#9ACBC9"/>
<path d="M197.104 168.196C195.102 168.196 193.158 167.159 192.085 165.301C190.487 162.532 191.436 158.995 194.204 157.395L241.887 129.864C244.654 128.264 248.194 129.213 249.792 131.983C251.392 134.752 250.442 138.291 247.674 139.891L199.991 167.421C199.079 167.947 198.085 168.196 197.104 168.196Z" fill="#9ACBC9"/>
<path d="M250.498 131.816L264.98 140.648L302.057 102.051L250.094 114.863L250.498 131.816ZM265.931 153.795C264.897 153.795 263.855 153.517 262.922 152.949L241.977 140.181C241.15 139.676 240.464 138.975 239.98 138.136L239.77 137.773C239.284 136.935 239.017 135.985 238.994 135.016L238.412 110.495C238.348 107.779 240.177 105.385 242.812 104.737L317.541 86.256C320.034 84.7946 323.224 85.408 325.005 87.68C326.79 89.952 326.626 93.1906 324.622 95.2706L270.109 152.016C268.985 153.184 267.466 153.795 265.931 153.795Z" fill="#9ACBC9"/>
<path d="M126.129 95.4946C125.546 95.4946 124.961 95.4066 124.394 95.228L94.0222 85.6786C90.9728 84.7186 89.2795 81.472 90.2382 78.4213C91.1982 75.3693 94.4422 73.6826 97.4955 74.636L121.908 82.3106L127.772 57.1093C128.496 53.992 131.61 52.0667 134.719 52.7813C137.833 53.508 139.77 56.616 139.045 59.7306L131.766 91.0173C131.401 92.5853 130.398 93.9346 129 94.7333C128.117 95.2373 127.125 95.4946 126.129 95.4946Z" fill="#9ACBC9"/>
<path d="M129.169 179.548H38.0088C34.8142 179.548 32.2222 176.956 32.2222 173.76C32.2222 170.564 34.8142 167.972 38.0088 167.972H129.169C132.363 167.972 134.954 170.564 134.954 173.76C134.954 176.956 132.363 179.548 129.169 179.548Z" fill="#9ACBC9"/>
<path d="M53.2515 201.195C51.6875 201.195 50.1275 200.564 48.9862 199.321C46.8262 196.967 46.9822 193.304 49.3368 191.143L68.1915 173.839L49.2968 156.163C46.9621 153.977 46.8395 150.315 49.0235 147.981C51.2088 145.647 54.8715 145.528 57.2035 147.707L80.6595 169.651C81.8368 170.752 82.5008 172.296 82.4941 173.907C82.4875 175.517 81.8075 177.052 80.6195 178.143L57.1648 199.671C56.0528 200.692 54.6502 201.195 53.2515 201.195Z" fill="#9ACBC9"/>
<path d="M105.433 298.013C104.45 298.013 103.456 297.76 102.545 297.24C99.7768 295.64 98.8288 292.093 100.426 289.333L146.005 210.381C147.602 207.615 151.144 206.665 153.91 208.263C156.678 209.863 157.626 213.4 156.029 216.169L110.45 295.12C109.379 296.973 107.433 298.013 105.433 298.013Z" fill="#9ACBC9"/>
<path d="M131.801 295.64C129.149 295.64 126.758 293.8 126.158 291.107L120.598 266.12L95.8408 273.653C92.7755 274.573 89.5488 272.853 88.6195 269.787C87.6902 266.733 89.4168 263.493 92.4755 262.573L123.207 253.227C124.749 252.76 126.417 252.96 127.809 253.773C129.201 254.587 130.189 255.933 130.539 257.507L137.455 288.587C138.151 291.707 136.185 294.8 133.065 295.493C132.641 295.587 132.218 295.64 131.801 295.64Z" fill="#9ACBC9"/>
<path d="M241.749 298.84C239.749 298.84 237.802 297.813 236.732 295.947L191.153 217.005C189.555 214.236 190.504 210.697 193.272 209.099C196.041 207.501 199.58 208.452 201.176 211.219L246.755 290.16C248.353 292.933 247.405 296.467 244.637 298.067C243.728 298.6 242.732 298.84 241.749 298.84Z" fill="#9ACBC9"/>
<path d="M215.228 296.56C214.792 296.56 214.352 296.507 213.91 296.413C210.797 295.68 208.861 292.573 209.585 289.453L216.864 258.173C217.228 256.6 218.232 255.253 219.63 254.453C221.03 253.667 222.698 253.48 224.237 253.96L254.608 263.507C257.657 264.48 259.35 267.72 258.393 270.773C257.434 273.813 254.185 275.52 251.134 274.56L226.722 266.88L220.858 292.08C220.236 294.76 217.857 296.56 215.228 296.56Z" fill="#9ACBC9"/>
<path d="M310.621 181.217H219.462C216.266 181.217 213.674 178.627 213.674 175.429C213.674 172.233 216.266 169.641 219.462 169.641H310.621C313.818 169.641 316.409 172.233 316.409 175.429C316.409 178.627 313.818 181.217 310.621 181.217Z" fill="#9ACBC9"/>
<path d="M295.378 203.045C293.961 203.045 292.542 202.528 291.426 201.483L267.969 179.536C266.793 178.437 266.129 176.893 266.136 175.283C266.145 173.672 266.824 172.137 268.009 171.047L291.465 149.519C293.821 147.357 297.481 147.512 299.644 149.868C301.805 152.223 301.648 155.885 299.293 158.048L280.44 175.351L299.336 193.033C301.668 195.215 301.789 198.877 299.606 201.212C298.466 202.429 296.924 203.045 295.378 203.045Z" fill="#9ACBC9"/>
<path d="M197.608 141.701C196.625 141.701 195.63 141.453 194.719 140.927C191.95 139.328 191.004 135.789 192.602 133.02L238.18 54.076C239.78 51.3093 243.319 50.3599 246.086 51.9573C248.854 53.5559 249.802 57.0946 248.204 59.864L202.625 138.808C201.554 140.665 199.609 141.701 197.608 141.701Z" fill="#9ACBC9"/>
<path d="M223.74 96.2094C222.724 96.2094 221.717 95.9414 220.822 95.42C219.43 94.6067 218.439 93.2507 218.09 91.6787L211.174 60.6013C210.48 57.4813 212.448 54.3907 215.566 53.6947C218.684 53.0053 221.778 54.9667 222.473 58.0867L228.032 83.068L252.79 75.5427C255.85 74.6214 259.082 76.3387 260.01 79.4C260.941 82.4573 259.214 85.6907 256.157 86.62L225.422 95.96C224.871 96.1267 224.305 96.2094 223.74 96.2094Z" fill="#9ACBC9"/>
<path d="M83.5809 27.2853C86.4102 22.384 92.6782 20.704 97.5795 23.5346C102.481 26.364 104.161 32.632 101.332 37.5333C98.5009 42.4346 92.2329 44.1133 87.3329 41.284C82.4315 38.4533 80.7515 32.1866 83.5809 27.2853Z" fill="#9ACBC9"/>
<path d="M1.37419 179.519C-1.45515 174.616 0.224839 168.349 5.12484 165.52C10.0262 162.691 16.2929 164.369 19.1235 169.271C21.9529 174.172 20.2742 180.44 15.3729 183.269C10.4715 186.099 4.20352 184.419 1.37419 179.519Z" fill="#9ACBC9"/>
<path d="M92.1088 326.827C86.4488 326.827 81.8608 322.24 81.8608 316.587C81.8608 310.92 86.4488 306.333 92.1088 306.333C97.7675 306.333 102.356 310.92 102.356 316.587C102.356 322.24 97.7675 326.827 92.1088 326.827Z" fill="#9ACBC9"/>
<path d="M265.05 321.907C262.219 326.813 255.951 328.48 251.051 325.653C246.149 322.827 244.47 316.56 247.3 311.653C250.129 306.76 256.397 305.08 261.298 307.907C266.2 310.733 267.879 317 265.05 321.907Z" fill="#9ACBC9"/>
<path d="M347.257 169.672C350.086 174.573 348.406 180.841 343.505 183.671C338.605 186.501 332.337 184.821 329.506 179.92C326.677 175.019 328.357 168.751 333.258 165.921C338.16 163.091 344.426 164.771 347.257 169.672Z" fill="#9ACBC9"/>
<path d="M256.522 22.3626C262.182 22.3626 266.77 26.9507 266.77 32.6107C266.77 38.2693 262.182 42.8573 256.522 42.8573C250.862 42.8573 246.276 38.2693 246.276 32.6107C246.276 26.9507 250.862 22.3626 256.522 22.3626Z" fill="#9ACBC9"/>
</g>
<defs>
<clipPath id="clip0_45_277">
<rect width="349" height="349" fill="white"/>
</clipPath>
</defs>
</svg>
