<svg width="305" height="349" viewBox="0 0 305 349" fill="none" xmlns="http://www.w3.org/2000/svg">
<path d="M152.282 154.684C148.905 154.684 145.485 155.544 142.358 157.349C132.849 162.84 129.58 175.043 135.069 184.552C140.561 194.064 152.762 197.332 162.272 191.84C171.782 186.349 175.052 174.147 169.561 164.637C165.877 158.256 159.169 154.684 152.282 154.684ZM152.368 206.077C141.477 206.077 130.87 200.432 125.045 190.34C116.364 175.303 121.534 156.007 136.57 147.323C151.61 138.647 170.904 143.812 179.585 158.849C188.266 173.887 183.097 193.183 168.06 201.867C163.114 204.721 157.706 206.077 152.368 206.077Z" fill="#9ACBC9"/>
<path d="M153.151 154.56C149.954 154.56 147.363 151.969 147.363 148.772V93.7133C147.363 90.5173 149.954 87.9253 153.151 87.9253C156.346 87.9253 158.938 90.5173 158.938 93.7133V148.772C158.938 151.969 156.346 154.56 153.151 154.56Z" fill="#9ACBC9"/>
<path d="M131.624 142.577C130.144 142.577 128.661 142.012 127.532 140.883C125.272 138.621 125.272 134.959 127.532 132.697L148.337 111.893C150.594 109.632 154.264 109.632 156.521 111.893L177.196 132.568C179.456 134.829 179.456 138.492 177.196 140.752C174.938 143.013 171.27 143.013 169.012 140.752L152.429 124.169L135.717 140.883C134.586 142.012 133.105 142.577 131.624 142.577Z" fill="#9ACBC9"/>
<path d="M109.226 179.403C106.671 179.403 104.333 177.696 103.64 175.111L96.025 146.689C95.197 143.604 97.029 140.429 100.117 139.603L128.358 132.033C131.441 131.2 134.617 133.037 135.446 136.127C136.274 139.212 134.442 142.385 131.354 143.213L108.702 149.284L114.819 172.115C115.647 175.204 113.814 178.377 110.727 179.203C110.226 179.337 109.722 179.403 109.226 179.403Z" fill="#9ACBC9"/>
<path d="M129.925 217.207C129.43 217.207 128.925 217.141 128.423 217.005L100.004 209.392C98.52 208.997 97.255 208.025 96.489 206.696C95.722 205.368 95.512 203.788 95.91 202.305L103.478 174.061C104.305 170.973 107.476 169.133 110.565 169.971C113.654 170.799 115.486 173.972 114.658 177.057L108.589 199.711L131.419 205.827C134.506 206.652 136.338 209.825 135.512 212.915C134.818 215.5 132.479 217.207 129.925 217.207Z" fill="#9ACBC9"/>
<path d="M152.201 238.992C150.721 238.992 149.24 238.427 148.11 237.296L127.436 216.624C125.174 214.363 125.174 210.701 127.436 208.44C129.694 206.18 133.358 206.18 135.619 208.44L152.201 225.02L168.916 208.307C171.176 206.047 174.841 206.047 177.1 208.307C179.361 210.568 179.361 214.231 177.1 216.492L156.293 237.296C155.163 238.427 153.682 238.992 152.201 238.992Z" fill="#9ACBC9"/>
<path d="M174.772 217.356C172.217 217.356 169.878 215.649 169.185 213.064C168.357 209.977 170.19 206.804 173.278 205.976L195.927 199.905L189.812 177.075C188.984 173.989 190.816 170.815 193.902 169.987C196.99 169.153 200.165 170.993 200.991 174.079L208.608 202.5C209.436 205.585 207.602 208.76 204.514 209.588L176.273 217.156C175.772 217.291 175.268 217.353 174.772 217.356Z" fill="#9ACBC9"/>
<path d="M195.567 179.42C195.071 179.42 194.566 179.356 194.065 179.22C190.978 178.391 189.145 175.221 189.973 172.132L196.042 149.481L173.213 143.363C170.125 142.535 168.291 139.363 169.119 136.276C169.946 133.187 173.122 131.344 176.209 132.184L204.627 139.8C207.715 140.628 209.547 143.801 208.719 146.888L201.153 175.128C200.461 177.713 198.122 179.417 195.567 179.42Z" fill="#9ACBC9"/>
<path d="M138.476 79.104L153.36 87.2333L168.246 79.104L153.361 27.696L138.476 79.104ZM153.569 99.5013H153.152C152.181 99.5013 151.228 99.2587 150.376 98.792L128.849 87.0333C126.468 85.7333 125.309 82.952 126.065 80.344L147.424 6.58273L147.422 6.38806C147.412 3.50273 149.528 1.04671 152.386 0.637379C155.253 0.221379 157.968 1.98537 158.77 4.75737L180.657 80.344C181.412 82.952 180.253 85.7333 177.872 87.0333L156.342 98.792C155.493 99.2587 154.538 99.5013 153.569 99.5013Z" fill="#9ACBC9"/>
<path d="M130.363 166.745C129.382 166.745 128.388 166.497 127.476 165.972L79.791 138.444C77.0235 136.844 76.0755 133.307 77.6742 130.536C79.272 127.769 82.813 126.82 85.58 128.417L133.263 155.945C136.031 157.544 136.98 161.083 135.381 163.852C134.31 165.708 132.365 166.745 130.363 166.745Z" fill="#9ACBC9"/>
<path d="M25.6169 100.239L62.6969 138.836L77.1782 130.008L77.5809 113.052L25.6169 100.239ZM61.7435 151.983C60.2089 151.983 58.6902 151.375 57.5675 150.205L4.19949 94.7307C1.69419 93.3013 0.626195 90.24 1.6955 87.5613C2.7689 84.88 5.6542 83.4013 8.4502 84.0853L84.864 102.927C87.5 103.573 89.328 105.967 89.264 108.683L88.681 133.207C88.66 134.176 88.393 135.125 87.905 135.965L87.697 136.327C87.213 137.167 86.525 137.867 85.698 138.372L64.7542 151.137C63.8195 151.705 62.7795 151.983 61.7435 151.983Z" fill="#9ACBC9"/>
<path d="M81.857 220.1C79.855 220.1 77.9115 219.063 76.8382 217.207C75.2408 214.44 76.1888 210.899 78.957 209.3L126.638 181.769C129.405 180.172 132.946 181.121 134.545 183.888C136.142 186.655 135.194 190.196 132.426 191.795L84.745 219.327C83.834 219.852 82.838 220.1 81.857 220.1Z" fill="#9ACBC9"/>
<path d="M61.6516 208.545L24.5755 247.133L76.5369 234.327L76.1342 217.373L61.6516 208.545ZM6.1795 263.72C4.4555 263.72 2.7609 262.96 1.6275 261.52C-0.157804 259.24 0.00359535 256 2.0049 253.92L56.5209 197.176C58.4022 195.217 61.3902 194.831 63.7089 196.244L84.654 209.008C85.481 209.511 86.169 210.215 86.653 211.055L86.861 211.416C87.348 212.255 87.616 213.205 87.637 214.175L88.22 238.696C88.284 241.411 86.454 243.8 83.82 244.453L9.0942 262.933C8.1809 263.467 7.1755 263.72 6.1795 263.72Z" fill="#9ACBC9"/>
<path d="M151.48 261.267C148.284 261.267 145.691 258.68 145.691 255.48V200.42C145.691 197.224 148.284 194.632 151.48 194.632C154.674 194.632 157.268 197.224 157.268 200.42V255.48C157.268 258.68 154.674 261.267 151.48 261.267Z" fill="#9ACBC9"/>
<path d="M136.385 270.093L151.27 321.493L166.157 270.093L151.27 261.96L136.385 270.093ZM151.417 348.613C148.878 348.613 146.59 346.933 145.864 344.44L123.974 268.84C123.218 266.24 124.377 263.453 126.76 262.16L148.286 250.4C149.138 249.933 150.092 249.693 151.061 249.693H151.48C152.449 249.693 153.402 249.933 154.253 250.4L175.782 262.16C178.164 263.453 179.322 266.24 178.566 268.84L157.208 342.613L157.209 342.8C157.221 345.693 155.105 348.147 152.249 348.547C151.969 348.587 151.691 348.613 151.417 348.613Z" fill="#9ACBC9"/>
<path d="M221.938 221.547C220.956 221.547 219.961 221.299 219.05 220.773L171.368 193.245C168.6 191.645 167.652 188.108 169.249 185.337C170.844 182.568 174.389 181.621 177.156 183.219L224.838 210.747C227.606 212.345 228.554 215.884 226.956 218.653C225.885 220.509 223.94 221.547 221.938 221.547Z" fill="#9ACBC9"/>
<path d="M227.049 236.139L279.013 248.947L241.935 210.353L227.451 219.181L227.049 236.139ZM297.561 265.28C297.101 265.28 296.633 265.227 296.167 265.107L219.766 246.267C217.131 245.613 215.302 243.227 215.366 240.507L215.949 215.985C215.972 215.023 216.236 214.081 216.714 213.244L216.923 212.88C217.407 212.035 218.099 211.325 218.931 210.817L239.878 198.052C242.2 196.641 245.183 197.027 247.063 198.984L300.441 254.467C302.945 255.907 304.006 258.96 302.931 261.64C302.034 263.88 299.878 265.28 297.561 265.28Z" fill="#9ACBC9"/>
<path d="M175.104 168.196C173.102 168.196 171.158 167.159 170.085 165.301C168.487 162.532 169.436 158.995 172.204 157.395L219.887 129.864C222.654 128.264 226.194 129.213 227.792 131.983C229.392 134.752 228.442 138.291 225.674 139.891L177.991 167.421C177.079 167.947 176.085 168.196 175.104 168.196Z" fill="#9ACBC9"/>
<path d="M228.498 131.816L242.98 140.648L280.057 102.051L228.094 114.863L228.498 131.816ZM243.931 153.795C242.897 153.795 241.855 153.517 240.922 152.949L219.977 140.181C219.15 139.676 218.464 138.975 217.98 138.136L217.77 137.773C217.284 136.935 217.017 135.985 216.994 135.016L216.412 110.495C216.348 107.779 218.177 105.385 220.812 104.737L295.541 86.256C298.034 84.7946 301.224 85.408 303.005 87.68C304.79 89.952 304.626 93.1906 302.622 95.2706L248.109 152.016C246.985 153.184 245.466 153.795 243.931 153.795Z" fill="#9ACBC9"/>
</svg>
