<svg width="208" height="220" viewBox="0 0 208 220" fill="none" xmlns="http://www.w3.org/2000/svg">
<path fill-rule="evenodd" clip-rule="evenodd" d="M103.589 10.9336V210Z" fill="#88CDFF"/>
<path d="M103.589 10.9336V210" stroke="#88CDFF" stroke-width="20" stroke-linecap="round"/>
<path fill-rule="evenodd" clip-rule="evenodd" d="M194.609 58.1889L10 157.722Z" fill="#88CDFF"/>
<path d="M194.609 58.1889L10 157.722" stroke="#88CDFF" stroke-width="20" stroke-linecap="round"/>
<path fill-rule="evenodd" clip-rule="evenodd" d="M10.0449 57.3209L194.654 156.854Z" fill="#88CDFF"/>
<path d="M10.0449 57.3209L194.654 156.854" stroke="#88CDFF" stroke-width="20" stroke-linecap="round"/>
<path d="M73.275 28.4795L103.257 62.6424L133.238 28.9932" stroke="#88CDFF" stroke-width="20" stroke-linecap="round"/>
<path d="M73.3313 196.417L103.313 162.254L133.294 195.903" stroke="#88CDFF" stroke-width="20" stroke-linecap="round"/>
<path d="M168.075 37.5976L153.274 80.4643L197.609 89.425" stroke="#88CDFF" stroke-width="20" stroke-linecap="round"/>
<path d="M196.349 123.8L151.566 132.504L165.92 175.113" stroke="#88CDFF" stroke-width="20" stroke-linecap="round"/>
<path d="M45.3593 172.567L60.1605 129.701L15.8258 120.74" stroke="#88CDFF" stroke-width="20" stroke-linecap="round"/>
<path d="M12.1965 92.0941L56.9791 83.3902L42.626 40.7804" stroke="#88CDFF" stroke-width="20" stroke-linecap="round"/>
</svg>
