<svg width="744" height="225" viewBox="0 0 744 225" fill="none" xmlns="http://www.w3.org/2000/svg">
<g filter="url(#filter0_d_2_2)">
<g clip-path="url(#clip0_2_2)">
<rect x="4" width="736" height="217" rx="20" fill="#24273A"/>
<path d="M267.645 155V61.56H283.005L311.549 141.56C311.378 139.427 311.165 136.824 310.909 133.752C310.738 130.595 310.568 127.309 310.397 123.896C310.312 120.397 310.269 117.112 310.269 114.04V61.56H321.405V155H306.045L277.629 75C277.8 77.048 277.97 79.6507 278.141 82.808C278.312 85.88 278.44 89.1653 278.525 92.664C278.696 96.0773 278.781 99.3627 278.781 102.52V155H267.645ZM343.755 155V144.504H368.715V95.096H346.955V84.6H380.235V144.504H403.915V155H343.755ZM373.195 71.928C370.379 71.928 368.16 71.2027 366.539 69.752C364.918 68.3013 364.107 66.3387 364.107 63.864C364.107 61.304 364.918 59.2987 366.539 57.848C368.16 56.312 370.379 55.544 373.195 55.544C376.011 55.544 378.23 56.312 379.851 57.848C381.472 59.2987 382.283 61.304 382.283 63.864C382.283 66.3387 381.472 68.3013 379.851 69.752C378.23 71.2027 376.011 71.928 373.195 71.928ZM416.025 155L440.985 118.776L417.561 84.6H431.129L445.081 106.36C445.678 107.299 446.233 108.323 446.745 109.432C447.342 110.541 447.812 111.437 448.153 112.12C448.409 111.437 448.793 110.541 449.305 109.432C449.902 108.323 450.5 107.299 451.097 106.36L465.177 84.6H478.617L455.193 118.904L480.025 155H466.457L451.353 131.96C450.756 131.021 450.158 129.955 449.561 128.76C449.049 127.48 448.58 126.456 448.153 125.688C447.812 126.456 447.3 127.48 446.617 128.76C446.02 129.955 445.38 131.021 444.697 131.96L429.465 155H416.025ZM504.295 117.88V107.64H545.255V117.88H504.295ZM601.525 156.28C595.808 156.28 590.816 155.171 586.549 152.952C582.368 150.648 579.125 147.448 576.821 143.352C574.517 139.171 573.365 134.307 573.365 128.76V87.8C573.365 82.168 574.517 77.304 576.821 73.208C579.125 69.112 582.368 65.9547 586.549 63.736C590.816 61.432 595.808 60.28 601.525 60.28C607.328 60.28 612.32 61.432 616.501 63.736C620.682 65.9547 623.925 69.112 626.229 73.208C628.533 77.304 629.685 82.168 629.685 87.8V128.76C629.685 134.307 628.533 139.171 626.229 143.352C623.925 147.448 620.64 150.648 616.373 152.952C612.192 155.171 607.242 156.28 601.525 156.28ZM601.525 146.424C606.645 146.424 610.741 144.803 613.813 141.56C616.97 138.232 618.549 133.965 618.549 128.76V87.8C618.549 82.5947 616.97 78.3707 613.813 75.128C610.741 71.8 606.645 70.136 601.525 70.136C596.405 70.136 592.266 71.8 589.109 75.128C586.037 78.3707 584.501 82.5947 584.501 87.8V128.76C584.501 133.965 586.037 138.232 589.109 141.56C592.266 144.803 596.405 146.424 601.525 146.424ZM601.525 115.832C599.221 115.832 597.344 115.107 595.893 113.656C594.528 112.205 593.845 110.285 593.845 107.896C593.845 105.592 594.528 103.757 595.893 102.392C597.344 100.941 599.221 100.216 601.525 100.216C603.829 100.216 605.664 100.941 607.029 102.392C608.48 103.757 609.205 105.592 609.205 107.896C609.205 110.285 608.48 112.205 607.029 113.656C605.664 115.107 603.829 115.832 601.525 115.832Z" fill="#CAD3F5"/>
<path d="M133.719 36.0014V181.682" stroke="#88CDFF" stroke-width="20" stroke-linecap="round"/>
<path d="M195.858 70.5837L69.8269 143.424" stroke="#88CDFF" stroke-width="20" stroke-linecap="round"/>
<path d="M69.8576 69.9485L195.889 142.789" stroke="#88CDFF" stroke-width="20" stroke-linecap="round"/>
<path d="M113.024 48.8418L133.493 73.8428L153.961 49.2178" stroke="#88CDFF" stroke-width="20" stroke-linecap="round"/>
<path d="M113.063 171.742L133.531 146.74L153.999 171.365" stroke="#88CDFF" stroke-width="20" stroke-linecap="round"/>
<path d="M177.744 55.5146L167.639 86.8852L197.906 93.4428" stroke="#88CDFF" stroke-width="20" stroke-linecap="round"/>
<path d="M197.046 118.599L166.473 124.969L176.272 156.151" stroke="#88CDFF" stroke-width="20" stroke-linecap="round"/>
<path d="M93.9664 154.288L104.071 122.918L73.8042 116.36" stroke="#88CDFF" stroke-width="20" stroke-linecap="round"/>
<path d="M71.3265 95.3961L101.899 89.0265L92.1004 57.8438" stroke="#88CDFF" stroke-width="20" stroke-linecap="round"/>
</g>
</g>
<defs>
<filter id="filter0_d_2_2" x="0" y="0" width="744" height="225" filterUnits="userSpaceOnUse" color-interpolation-filters="sRGB">
<feFlood flood-opacity="0" result="BackgroundImageFix"/>
<feColorMatrix in="SourceAlpha" type="matrix" values="0 0 0 0 0 0 0 0 0 0 0 0 0 0 0 0 0 0 127 0" result="hardAlpha"/>
<feOffset dy="4"/>
<feGaussianBlur stdDeviation="2"/>
<feComposite in2="hardAlpha" operator="out"/>
<feColorMatrix type="matrix" values="0 0 0 0 0 0 0 0 0 0 0 0 0 0 0 0 0 0 0.25 0"/>
<feBlend mode="normal" in2="BackgroundImageFix" result="effect1_dropShadow_2_2"/>
<feBlend mode="normal" in="SourceGraphic" in2="effect1_dropShadow_2_2" result="shape"/>
</filter>
<clipPath id="clip0_2_2">
<rect x="4" width="736" height="217" rx="20" fill="white"/>
</clipPath>
</defs>
</svg>
