<svg width="192" height="129" viewBox="0 0 192 129" fill="none" xmlns="http://www.w3.org/2000/svg">
<path d="M171 75C171 55.1088 163.098 36.0322 149.033 21.967C134.968 7.90176 115.891 1.50175e-06 96.0001 0C76.1088 -1.50175e-06 57.0322 7.90176 42.967 21.967C28.9018 36.0322 21 55.1088 21 75H45.6711C45.6711 61.6519 50.9736 48.8506 60.4121 39.4121C69.8506 29.9736 82.652 24.6711 96.0001 24.6711C109.348 24.6711 122.149 29.9736 131.588 39.4121C141.026 48.8506 146.329 61.6519 146.329 75H171Z" fill="#D9D9D9"/>
<path d="M160.032 128.774C168.386 128.774 176.399 125.455 182.306 119.548C188.213 113.64 191.532 105.628 191.532 97.2739C191.532 88.9195 188.213 80.9074 182.306 75C176.399 69.0926 168.386 65.7739 160.032 65.7739V128.774Z" fill="#D9D9D9"/>
<path d="M160.032 65.7739V128.774H137.532V65.7739H160.032Z" fill="#D9D9D9"/>
<path d="M31.5 128.774C23.1457 128.774 15.1335 125.455 9.22614 119.548C3.31874 113.64 -2.32402e-07 105.628 0 97.2739C2.32402e-07 88.9195 3.31874 80.9074 9.22614 75C15.1335 69.0926 23.1457 65.7739 31.5 65.7739V128.774Z" fill="#D9D9D9"/>
<path d="M31.5 65.7739V128.774H54V65.7739H31.5Z" fill="#D9D9D9"/>
</svg>
