<svg width="171" height="151" viewBox="0 0 171 151" fill="none" xmlns="http://www.w3.org/2000/svg">
<path d="M151 75.5C151 60.5675 146.572 45.9704 138.276 33.5545C129.98 21.1386 118.188 11.4615 104.393 5.74713C90.5968 0.0327125 75.4163 -1.46244 60.7707 1.45075C46.1251 4.36393 32.6723 11.5546 22.1135 22.1135C11.5546 32.6723 4.36393 46.1251 1.45075 60.7707C-1.46244 75.4163 0.0327129 90.5968 5.74713 104.393C11.4615 118.188 21.1386 129.98 33.5545 138.276C45.9704 146.572 60.5675 151 75.5 151V120C66.6988 120 58.0951 117.39 50.7772 112.5C43.4592 107.611 37.7555 100.661 34.3874 92.5294C31.0193 84.3981 30.138 75.4507 31.8551 66.8185C33.5721 58.1864 37.8103 50.2572 44.0338 44.0338C50.2572 37.8103 58.1864 33.5721 66.8185 31.8551C75.4507 30.138 84.3981 31.0193 92.5294 34.3874C100.661 37.7555 107.611 43.4592 112.5 50.7772C117.39 58.0951 120 66.6988 120 75.5H151Z" fill="#D9D9D9"/>
<path d="M151 75.5H120H100.5L135 112.5L170.5 75.5L151 75.5Z" fill="#D9D9D9"/>
</svg>
